<svg width="60" height="60" viewBox="0 0 60 60" fill="none" xmlns="http://www.w3.org/2000/svg">
<path d="M30 60C13.4274 60 0 46.5726 0 30C0 13.4274 13.4274 0 30 0C46.5726 0 60 13.4274 60 30C60 46.5726 46.5726 60 30 60ZM44.0323 24.6774H30V16.1008C30 14.8065 28.4274 14.1532 27.5202 15.0726L13.6935 28.9718C13.125 29.5403 13.125 30.4476 13.6935 31.0161L27.5202 44.9153C28.4395 45.8347 30 45.1814 30 43.8871V35.3226H44.0323C44.8306 35.3226 45.4839 34.6694 45.4839 33.871V26.129C45.4839 25.3306 44.8306 24.6774 44.0323 24.6774Z" fill="#8A8888"/>
</svg>
