<svg width="60" height="60" viewBox="0 0 60 60" fill="none" xmlns="http://www.w3.org/2000/svg">
<path d="M30 0C46.5726 0 60 13.4274 60 30C60 46.5726 46.5726 60 30 60C13.4274 60 0 46.5726 0 30C0 13.4274 13.4274 0 30 0ZM15.9677 35.3226H30V43.8992C30 45.1935 31.5726 45.8468 32.4798 44.9274L46.3064 31.0282C46.875 30.4597 46.875 29.5524 46.3064 28.9839L32.4798 15.0726C31.5605 14.1532 30 14.8065 30 16.1008V24.6774H15.9677C15.1694 24.6774 14.5161 25.3306 14.5161 26.129V33.871C14.5161 34.6694 15.1694 35.3226 15.9677 35.3226Z" fill="#FB1F1F"/>
</svg>
