<svg width="148" height="24" viewBox="0 0 148 24" fill="none" xmlns="http://www.w3.org/2000/svg">
<path d="M10.3646 1.77312L7.5304 7.51965L1.18926 8.44413C0.052104 8.60906 -0.403625 10.011 0.421028 10.8139L5.0087 15.2844L3.92363 21.5995C3.72832 22.741 4.93058 23.596 5.93752 23.0622L11.6103 20.0804L17.283 23.0622C18.29 23.5917 19.4922 22.741 19.2969 21.5995L18.2118 15.2844L22.7995 10.8139C23.6242 10.011 23.1684 8.60906 22.0313 8.44413L15.6901 7.51965L12.8559 1.77312C12.3481 0.748814 10.8768 0.735793 10.3646 1.77312Z" fill="#FFCC80"/>
<path d="M41.3646 1.77312L38.5304 7.51965L32.1893 8.44413C31.0521 8.60906 30.5964 10.011 31.421 10.8139L36.0087 15.2844L34.9236 21.5995C34.7283 22.741 35.9306 23.596 36.9375 23.0622L42.6103 20.0804L48.283 23.0622C49.29 23.5917 50.4922 22.741 50.2969 21.5995L49.2118 15.2844L53.7995 10.8139C54.6242 10.011 54.1684 8.60906 53.0313 8.44413L46.6901 7.51965L43.8559 1.77312C43.3481 0.748814 41.8768 0.735793 41.3646 1.77312Z" fill="#FFCC80"/>
<path d="M72.3646 1.77312L69.5304 7.51965L63.1893 8.44413C62.0521 8.60906 61.5964 10.011 62.421 10.8139L67.0087 15.2844L65.9236 21.5995C65.7283 22.741 66.9306 23.596 67.9375 23.0622L73.6103 20.0804L79.283 23.0622C80.29 23.5917 81.4922 22.741 81.2969 21.5995L80.2118 15.2844L84.7995 10.8139C85.6242 10.011 85.1684 8.60906 84.0313 8.44413L77.6901 7.51965L74.8559 1.77312C74.3481 0.748814 72.8768 0.735793 72.3646 1.77312Z" fill="#FFCC80"/>
<path d="M103.365 0.77312L100.53 6.51965L94.1893 7.44413C93.0521 7.60906 92.5964 9.01097 93.421 9.81392L98.0087 14.2844L96.9236 20.5995C96.7283 21.741 97.9306 22.596 98.9375 22.0622L104.61 19.0804L110.283 22.0622C111.29 22.5917 112.492 21.741 112.297 20.5995L111.212 14.2844L115.799 9.81392C116.624 9.01097 116.168 7.60906 115.031 7.44413L108.69 6.51965L105.856 0.77312C105.348 -0.251186 103.877 -0.264207 103.365 0.77312Z" fill="#FFCC80"/>
<path d="M134.365 1.77312L131.53 7.51965L125.189 8.44413C124.052 8.60906 123.596 10.011 124.421 10.8139L129.009 15.2844L127.924 21.5995C127.728 22.741 128.931 23.596 129.938 23.0622L135.61 20.0804L141.283 23.0622C142.29 23.5917 143.492 22.741 143.297 21.5995L142.212 15.2844L146.799 10.8139C147.624 10.011 147.168 8.60906 146.031 8.44413L139.69 7.51965L136.856 1.77312C136.348 0.748814 134.877 0.735793 134.365 1.77312Z" fill="#FFCC80"/>
</svg>
