<svg width="41" height="46" viewBox="0 0 41 46" fill="none" xmlns="http://www.w3.org/2000/svg">
<path d="M37 13.875H31.9286V13.5C31.9286 7.17132 26.8177 2 20.5 2C14.1823 2 9.07143 7.17133 9.07143 13.5V13.875H4H2V15.875V36.0625C2 40.432 5.51953 44 9.89286 44H31.1071C35.4805 44 39 40.432 39 36.0625V15.875V13.875H37ZM17.7857 13.5C17.7857 11.9711 19.0193 10.75 20.5 10.75C21.9807 10.75 23.2143 11.9711 23.2143 13.5V13.875H17.7857V13.5ZM27.5714 20.4062C27.7138 20.4062 27.8036 20.5185 27.8036 20.625C27.8036 20.7315 27.7138 20.8438 27.5714 20.8438C27.429 20.8438 27.3393 20.7315 27.3393 20.625C27.3393 20.5185 27.429 20.4062 27.5714 20.4062ZM13.4286 20.4062C13.571 20.4062 13.6607 20.5185 13.6607 20.625C13.6607 20.7315 13.571 20.8438 13.4286 20.8438C13.2862 20.8438 13.1964 20.7315 13.1964 20.625C13.1964 20.5185 13.2862 20.4062 13.4286 20.4062Z" fill="#FEFBFB" stroke="black" stroke-width="4"/>
</svg>
